<?xml version="1.0" encoding="UTF-8"?>
<svg id="Capa_1" data-name="Capa 1" xmlns="http://www.w3.org/2000/svg" viewBox="0 0 732.13 250.84">
  <defs>
    <style>
      .cls-1, .cls-2 {
        fill: #fff;
      }

      .cls-2 {
        fill-rule: evenodd;
      }
    </style>
  </defs>
  <path class="cls-2" d="M161.57,25c-55.46,0-100.43,44.96-100.43,100.42s44.96,100.43,100.43,100.43,100.42-44.96,100.42-100.43S217.03,25,161.57,25m-1.38,182.47l-14.8-11.08v-54.75h-13.57c-.84,.02-2.33,.26-3.13,1.02-.65,.62-1.01,1.92-1.01,3.67v20.03h-14.8v-20.03c0-6.07,1.92-10.95,5.71-14.49,5.36-5.02,12.32-5.07,13.95-5h27.65v80.62Zm0-83.46h-27.65c-1.63,.07-8.59,.02-13.95-5-3.79-3.54-5.71-8.42-5.71-14.49v-20.03h14.8v20.03c0,1.75,.36,3.06,1.01,3.67,.8,.76,2.29,1,3.13,1.02h13.57V54.46l14.8-11.08V124Zm50.07,42.35h-14.8v-20.03c0-1.75-.35-3.06-1.01-3.67-.8-.76-2.28-1-3.1-1.03h-13.61v54.75l-14.8,11.08V126.84h27.65c1.7-.06,8.6-.01,13.96,5,3.78,3.54,5.7,8.42,5.7,14.49v20.03Zm0-61.84c0,6.07-1.92,10.94-5.7,14.49-5.36,5.01-12.26,5.06-13.96,5h-27.65V43.37l14.8,11.08v54.75h13.61c.81-.02,2.3-.26,3.1-1.02,.65-.61,1.01-1.92,1.01-3.67v-20.03h14.8v20.03Z"/>
  <path class="cls-2" d="M399.36,70.56c-1.79,0-3.5,.24-5.14,.72-1.64,.48-3.32,1.25-5.03,2.29-1.71,1.04-3.52,2.4-5.42,4.08-1.9,1.67-3.96,3.7-6.2,6.09-2.46,2.61-5.05,5.49-7.76,8.66-2.72,3.17-5.64,6.57-8.77,10.22,4.09,8.34,8.03,15.97,11.79,22.89,3.76,6.93,7.44,12.9,11.05,17.92,3.61,5.03,7.21,8.94,10.78,11.73,3.57,2.79,7.29,4.19,11.16,4.19h1.23v6.59c-2.16,.6-4.36,1.04-6.59,1.34-2.23,.3-4.84,.45-7.82,.45-4.84,0-9.05-.82-12.62-2.46-3.58-1.64-7-4.41-10.28-8.32-3.28-3.91-6.64-9.08-10.11-15.52-3.46-6.44-7.42-14.43-11.89-23.96-.52,.6-1.13,1.32-1.84,2.18-.71,.86-1.45,1.73-2.24,2.62-.78,.89-1.5,1.77-2.18,2.63-.67,.86-1.19,1.5-1.56,1.96v39.76h-19.88V63.63h19.88v48.25c1.93-2.31,4.26-5.17,6.98-8.6,2.72-3.42,5.51-6.93,8.38-10.5,2.87-3.57,5.62-6.96,8.26-10.16,2.65-3.2,4.86-5.77,6.65-7.71,2.31-2.53,4.39-4.56,6.25-6.09,1.86-1.53,3.7-2.68,5.53-3.46,1.82-.78,3.7-1.28,5.64-1.51,1.93-.23,4.17-.34,6.7-.34,1.04,0,2.25,.06,3.63,.17,1.38,.11,2.33,.28,2.85,.51v6.37h-1.45"/>
  <path class="cls-2" d="M473.29,156.45c1.64,0,3.91-.41,6.81-1.23v4.69c-1.05,.97-2.27,1.92-3.69,2.85-1.42,.93-2.92,1.75-4.53,2.46-1.6,.71-3.25,1.26-4.97,1.67-1.71,.41-3.39,.62-5.03,.62-1.79,0-3.32-.26-4.58-.78-1.26-.52-2.36-1.17-3.29-1.96-.93-.78-1.71-1.69-2.35-2.73-.64-1.04-1.18-2.05-1.62-3.02-1.64,1.12-3.26,2.22-4.86,3.3-1.6,1.08-3.28,2.03-5.03,2.85-1.75,.82-3.59,1.49-5.52,2.01-1.94,.52-4.1,.78-6.48,.78-5.36,0-9.59-1.68-12.68-5.03-3.09-3.35-4.63-8.41-4.63-15.19,0-3.58,.46-6.7,1.39-9.38,.93-2.68,2.41-4.89,4.45-6.64,2.04-1.75,4.68-3.09,7.91-4.02,3.23-.93,7.18-1.47,11.86-1.62l11.81-.33v-10c0-2.7-.73-4.68-2.18-5.96-1.45-1.27-3.93-1.91-7.43-1.91-2.46,0-5.31,.3-8.54,.9-3.24,.6-6.64,1.6-10.22,3.01l-2.68-7.12c2.38-1.03,4.86-2.05,7.43-3.04,2.57-1,5.17-1.88,7.82-2.66,2.64-.77,5.32-1.4,8.04-1.88,2.72-.48,5.41-.72,8.1-.72,3.07,0,5.8,.28,8.2,.84,2.4,.56,4.4,1.51,6.01,2.85,1.61,1.34,2.85,3.13,3.71,5.36,.86,2.23,1.29,4.99,1.29,8.26v31.72c0,7.37,1.82,11.06,5.47,11.06m-24.24-3.24c-.08-.3-.15-1.06-.23-2.29-.07-1.23-.15-2.8-.22-4.69-.07-1.9-.13-4.06-.17-6.48-.04-2.42-.06-4.97-.06-7.65-4.77,0-8.38,.28-10.8,.84-2.43,.56-3.93,1.25-4.52,2.07-.3,.3-.53,.85-.72,1.67-.18,.82-.33,1.73-.44,2.73-.11,1.01-.18,2.05-.22,3.13-.04,1.08-.06,2.07-.06,2.96,0,3.13,.42,5.66,1.27,7.6,.84,1.94,2.26,2.9,4.25,2.9,2.13,0,4.17-.26,6.12-.78,1.95-.52,3.88-1.19,5.8-2.01Z"/>
  <polyline class="cls-2" points="510.71 166.61 491.16 166.61 491.16 53.8 510.71 49.78 510.71 166.61"/>
  <path class="cls-2" d="M589.78,156.45c1.64,0,3.91-.41,6.81-1.23v4.69c-1.05,.97-2.27,1.92-3.69,2.85-1.42,.93-2.92,1.75-4.52,2.46-1.6,.71-3.26,1.26-4.97,1.67-1.71,.41-3.39,.61-5.03,.61-1.78,0-3.32-.26-4.58-.78-1.26-.52-2.37-1.17-3.29-1.96-.93-.78-1.71-1.69-2.35-2.73-.63-1.04-1.17-2.05-1.62-3.02-1.64,1.12-3.26,2.22-4.86,3.3-1.6,1.08-3.28,2.03-5.03,2.85-1.75,.82-3.59,1.49-5.52,2.01-1.94,.52-4.1,.78-6.48,.78-5.36,0-9.59-1.68-12.68-5.03-3.09-3.35-4.63-8.41-4.63-15.19,0-3.57,.46-6.7,1.39-9.39,.93-2.68,2.42-4.89,4.45-6.64,2.04-1.75,4.68-3.09,7.91-4.02,3.23-.93,7.18-1.47,11.86-1.62l11.81-.34v-10c0-2.69-.73-4.68-2.18-5.96-1.45-1.27-3.93-1.91-7.43-1.91-2.46,0-5.3,.3-8.54,.89-3.24,.6-6.64,1.6-10.22,3.02l-2.68-7.12c2.38-1.03,4.86-2.05,7.43-3.04,2.57-.99,5.17-1.88,7.82-2.65,2.64-.77,5.32-1.4,8.04-1.88,2.72-.48,5.41-.72,8.1-.72,3.07,0,5.8,.28,8.2,.84,2.4,.56,4.4,1.51,6.01,2.85,1.61,1.34,2.85,3.13,3.71,5.36,.86,2.24,1.29,4.99,1.29,8.26v31.72c0,7.37,1.82,11.06,5.47,11.06m-24.24-3.24c-.07-.3-.15-1.06-.22-2.29-.08-1.23-.15-2.79-.22-4.69-.08-1.9-.13-4.06-.17-6.48-.04-2.42-.06-4.97-.06-7.65-4.77,0-8.38,.28-10.8,.84-2.43,.56-3.93,1.25-4.52,2.07-.29,.3-.53,.85-.72,1.67-.18,.82-.33,1.73-.44,2.73-.11,1-.18,2.05-.22,3.13-.04,1.08-.06,2.07-.06,2.96,0,3.13,.42,5.66,1.26,7.59,.85,1.94,2.26,2.91,4.25,2.91,2.13,0,4.16-.26,6.11-.78,1.95-.52,3.88-1.19,5.8-2.01Zm4.69-98.84l10.06,10.16-25.13,21.89-6.25-6.37,21.33-25.69Z"/>
  <path class="cls-2" d="M651.44,166.61v-46.13c0-4.09-.65-7.11-1.96-9.05-1.3-1.94-3.52-2.9-6.64-2.9-1.12,0-2.37,.15-3.74,.45-1.38,.3-2.76,.72-4.13,1.29-1.38,.56-2.73,1.19-4.08,1.9-1.34,.71-2.57,1.47-3.69,2.29v52.16h-19.55V97.81h17.42l1.79,8.04h.22c1.34-.89,2.96-1.88,4.86-2.96,1.9-1.08,3.96-2.1,6.2-3.07,2.24-.97,4.54-1.79,6.93-2.46,2.38-.67,4.73-1.01,7.03-1.01,2.61,0,5.04,.43,7.32,1.29,2.27,.86,4.26,2.12,5.98,3.8,1.71,1.68,3.07,3.78,4.08,6.31,1.01,2.54,1.51,5.51,1.51,8.94v49.92h-19.55"/>
  <polyline class="cls-2" points="322.74 200.79 322.74 181.81 326.4 181.81 326.4 198.81 333.25 198.81 333.07 200.79 322.74 200.79"/>
  <path class="cls-2" d="M362.6,200.79l-2.12-6.4-6.79,.1-2.18,6.3h-2.32l7.14-18.81,3.56-.64,6.65,19.45h-3.93m-2.7-8.19l-2.74-8.19-2.82,8.19h5.56Z"/>
  <path class="cls-2" d="M395.09,195.66c0,.84-.13,1.58-.4,2.24-.27,.66-.68,1.22-1.23,1.68-.56,.46-1.26,.81-2.11,1.05-.85,.24-1.87,.36-3.05,.36-.38,0-.83,0-1.33-.02-.51-.01-1.03-.03-1.58-.05-.54-.02-1.07-.05-1.58-.1-.51-.04-.96-.08-1.35-.12v-18.75c.73-.08,1.56-.14,2.49-.18,.93-.04,1.81-.06,2.64-.06,1,0,1.92,.09,2.74,.26,.82,.17,1.53,.44,2.11,.8,.58,.37,1.03,.83,1.35,1.4,.32,.57,.47,1.25,.47,2.05,0,.65-.09,1.21-.27,1.7-.18,.49-.42,.91-.72,1.28-.3,.36-.64,.66-1.04,.88-.4,.23-.81,.4-1.24,.5v.06c.73,.15,1.35,.38,1.86,.7,.52,.32,.94,.69,1.26,1.12,.33,.43,.58,.92,.73,1.46,.16,.54,.24,1.12,.24,1.74m-4.57-9.02c0-1.12-.3-1.91-.91-2.36-.61-.44-1.47-.67-2.58-.67-.16,0-.33,0-.48,0-.16,0-.3,.02-.42,.03v6.11h1.22c.43,0,.85-.04,1.28-.12,.42-.08,.75-.18,.99-.31,.11-.07,.22-.16,.33-.28,.11-.12,.21-.28,.3-.48,.09-.21,.16-.47,.21-.78,.06-.31,.08-.7,.08-1.15Zm.82,8.78c0-1.23-.35-2.16-1.04-2.79-.69-.63-1.71-.94-3.04-.94h-1.15v7.27c.11,.01,.2,.02,.28,.03,.07,0,.15,.01,.24,.02,.08,0,.18,.01,.31,.01h.54c.22,0,.46-.01,.73-.03,.27-.02,.53-.05,.78-.08,.25-.03,.49-.08,.7-.13,.21-.05,.38-.11,.51-.18,.12-.08,.25-.19,.39-.33,.14-.14,.26-.33,.38-.56,.12-.24,.21-.54,.28-.9,.07-.36,.1-.82,.1-1.37Z"/>
  <path class="cls-2" d="M428.9,191.24c0,1.5-.19,2.85-.57,4.06-.38,1.2-.95,2.24-1.71,3.1-.76,.86-1.71,1.52-2.85,1.97-1.14,.46-2.46,.69-3.97,.69s-2.88-.23-3.99-.7c-1.11-.47-2.02-1.13-2.73-1.98-.71-.86-1.23-1.89-1.56-3.1-.34-1.21-.51-2.55-.51-4.04s.17-2.82,.51-4c.34-1.18,.88-2.2,1.6-3.03,.72-.84,1.64-1.48,2.75-1.93,1.11-.45,2.43-.67,3.95-.67s2.85,.22,3.98,.67c1.13,.45,2.07,1.09,2.83,1.93,.75,.84,1.32,1.85,1.7,3.03,.38,1.19,.57,2.52,.57,4m-3.87,0c0-1.15-.1-2.19-.3-3.11-.2-.92-.51-1.7-.93-2.34-.42-.64-.97-1.12-1.62-1.46-.66-.34-1.44-.5-2.34-.5-.79,0-1.53,.09-2.22,.26-.68,.17-1.23,.42-1.62,.73-.4,.32-.69,1.01-.88,2.08-.18,1.07-.28,2.52-.28,4.34,0,1.14,.08,2.17,.25,3.1,.16,.93,.44,1.73,.82,2.4,.38,.67,.89,1.19,1.53,1.55,.64,.37,1.43,.55,2.37,.55s1.77-.09,2.4-.27c.63-.18,1.16-.42,1.6-.72,.2-.14,.38-.41,.53-.82,.15-.41,.28-.91,.38-1.51,.1-.6,.18-1.26,.23-2,.05-.73,.07-1.49,.07-2.27Z"/>
  <path class="cls-2" d="M449.72,192.97h-1.24v7.82h-3.66v-18.94c.74-.05,1.58-.1,2.51-.14,.93-.04,1.83-.06,2.68-.06,2.18,0,3.84,.42,4.97,1.26,1.13,.84,1.7,2.15,1.7,3.93,0,.79-.1,1.49-.29,2.08-.19,.59-.45,1.11-.76,1.54-.31,.44-.68,.81-1.09,1.11-.41,.3-.84,.56-1.3,.76,.54,.97,1.05,1.89,1.53,2.76,.49,.86,.97,1.62,1.46,2.26,.49,.65,.98,1.16,1.48,1.53,.5,.38,1.04,.57,1.62,.57h.12v1.21c-.29,.1-.62,.18-1,.24-.38,.06-.8,.09-1.27,.09-.67,0-1.26-.06-1.76-.19-.5-.12-.99-.39-1.46-.8-.47-.41-.96-1.01-1.47-1.81-.51-.79-1.1-1.87-1.77-3.23l-1.01-2m-.58-1.87c.51,0,1-.07,1.47-.2,.47-.13,.85-.29,1.12-.48,.14-.1,.27-.22,.41-.37,.14-.15,.26-.35,.37-.6,.11-.25,.2-.56,.27-.95,.07-.38,.1-.86,.1-1.44,0-.64-.07-1.19-.21-1.63-.15-.44-.36-.79-.65-1.06-.29-.27-.64-.46-1.07-.58-.42-.11-.91-.17-1.46-.17-.15,0-.32,0-.5,0-.18,0-.35,.02-.51,.05v7.41h.66Z"/>
  <path class="cls-2" d="M488.8,200.79l-2.12-6.4-6.79,.1-2.18,6.3h-2.32l7.14-18.81,3.56-.64,6.65,19.45h-3.93m-2.7-8.19l-2.74-8.19-2.82,8.19h5.56Z"/>
  <polyline class="cls-2" points="514.2 200.79 514.2 183.83 508.66 183.75 508.84 181.81 523.44 181.81 523.25 183.69 517.88 183.83 517.88 200.79 514.2 200.79"/>
  <path class="cls-2" d="M557.24,191.24c0,1.5-.18,2.85-.57,4.06-.38,1.2-.95,2.24-1.71,3.1-.76,.86-1.71,1.52-2.85,1.97-1.14,.46-2.46,.69-3.97,.69s-2.88-.23-3.99-.7c-1.11-.47-2.02-1.13-2.73-1.98-.71-.86-1.23-1.89-1.56-3.1-.34-1.21-.51-2.55-.51-4.04s.17-2.82,.52-4c.34-1.18,.87-2.2,1.59-3.03,.72-.84,1.64-1.48,2.75-1.93,1.11-.45,2.43-.67,3.95-.67s2.85,.22,3.98,.67c1.13,.45,2.07,1.09,2.83,1.93,.75,.84,1.32,1.85,1.7,3.03,.38,1.19,.57,2.52,.57,4m-3.87,0c0-1.15-.1-2.19-.3-3.11-.2-.92-.51-1.7-.94-2.34-.42-.64-.96-1.12-1.62-1.46-.66-.34-1.44-.5-2.34-.5-.79,0-1.53,.09-2.22,.26-.69,.17-1.23,.42-1.62,.73-.4,.32-.69,1.01-.87,2.08-.18,1.07-.28,2.52-.28,4.34,0,1.14,.08,2.17,.25,3.1,.16,.93,.44,1.73,.82,2.4,.38,.67,.89,1.19,1.53,1.55,.64,.37,1.43,.55,2.37,.55s1.77-.09,2.41-.27c.63-.18,1.16-.42,1.6-.72,.2-.14,.38-.41,.53-.82,.15-.41,.28-.91,.38-1.51,.1-.6,.18-1.26,.23-2,.05-.73,.07-1.49,.07-2.27Z"/>
  <path class="cls-2" d="M578.07,192.97h-1.24v7.82h-3.66v-18.94c.74-.05,1.58-.1,2.51-.14,.93-.04,1.83-.06,2.68-.06,2.18,0,3.84,.42,4.97,1.26,1.13,.84,1.7,2.15,1.7,3.93,0,.79-.1,1.49-.29,2.08-.19,.59-.45,1.11-.76,1.54-.31,.44-.68,.81-1.09,1.11-.41,.3-.84,.56-1.3,.76,.54,.97,1.05,1.89,1.53,2.76,.49,.86,.97,1.62,1.46,2.26,.49,.65,.98,1.16,1.48,1.53,.5,.38,1.04,.57,1.61,.57h.13v1.21c-.29,.1-.62,.18-1,.24-.38,.06-.8,.09-1.27,.09-.67,0-1.26-.06-1.76-.19-.5-.12-.99-.39-1.46-.8-.47-.41-.96-1.01-1.47-1.81-.51-.79-1.1-1.87-1.77-3.23l-1.01-2m-.58-1.87c.51,0,1-.07,1.47-.2,.47-.13,.85-.29,1.12-.48,.14-.1,.27-.22,.41-.37,.14-.15,.26-.35,.37-.6,.11-.25,.2-.56,.27-.95,.07-.38,.1-.86,.1-1.44,0-.64-.07-1.19-.21-1.63-.15-.44-.36-.79-.65-1.06-.29-.27-.64-.46-1.07-.58-.43-.11-.91-.17-1.46-.17-.15,0-.32,0-.5,0-.18,0-.35,.02-.51,.05v7.41h.66Z"/>
  <rect class="cls-1" x="603.73" y="181.81" width="3.66" height="18.98"/>
  <path class="cls-2" d="M641.2,191.24c0,1.5-.19,2.85-.57,4.06-.38,1.2-.95,2.24-1.71,3.1-.76,.86-1.71,1.52-2.85,1.97-1.14,.46-2.46,.69-3.97,.69s-2.88-.23-3.99-.7c-1.11-.47-2.02-1.13-2.73-1.98-.71-.86-1.23-1.89-1.57-3.1-.33-1.21-.5-2.55-.5-4.04s.17-2.82,.52-4c.34-1.18,.87-2.2,1.59-3.03,.72-.84,1.64-1.48,2.75-1.93,1.11-.45,2.43-.67,3.95-.67s2.85,.22,3.98,.67c1.13,.45,2.07,1.09,2.83,1.93,.75,.84,1.32,1.85,1.7,3.03,.38,1.19,.57,2.52,.57,4m-3.87,0c0-1.15-.1-2.19-.3-3.11-.2-.92-.51-1.7-.93-2.34-.42-.64-.97-1.12-1.62-1.46-.66-.34-1.44-.5-2.34-.5-.79,0-1.53,.09-2.22,.26-.68,.17-1.22,.42-1.62,.73-.4,.32-.69,1.01-.88,2.08-.18,1.07-.28,2.52-.28,4.34,0,1.14,.08,2.17,.25,3.1,.16,.93,.44,1.73,.82,2.4,.38,.67,.89,1.19,1.53,1.55,.64,.37,1.43,.55,2.37,.55s1.78-.09,2.41-.27c.63-.18,1.16-.42,1.6-.72,.2-.14,.38-.41,.53-.82,.15-.41,.28-.91,.38-1.51,.1-.6,.18-1.26,.23-2,.05-.73,.07-1.49,.07-2.27Z"/>
  <path class="cls-2" d="M669.64,195.23c0,.69-.17,1.38-.5,2.07-.33,.69-.8,1.32-1.42,1.87-.62,.56-1.36,1.01-2.24,1.36-.87,.35-1.85,.52-2.93,.52-.58,0-1.11-.03-1.61-.1-.5-.07-.96-.16-1.39-.28-.43-.12-.85-.26-1.25-.43-.4-.17-.79-.36-1.19-.57l.91-2.82c.26,.18,.61,.37,1.04,.58,.43,.21,.9,.4,1.41,.58,.51,.18,1.02,.33,1.53,.44,.51,.12,.98,.18,1.41,.18,.48,0,.88-.03,1.19-.09,.31-.06,.59-.15,.83-.26,.27-.11,.49-.38,.66-.82,.17-.44,.25-1.01,.25-1.71,0-.65-.21-1.16-.64-1.54-.42-.38-.96-.72-1.59-1-.64-.28-1.33-.56-2.07-.84-.74-.28-1.43-.64-2.07-1.09-.64-.45-1.17-1.02-1.6-1.72-.43-.7-.64-1.62-.64-2.76,0-.55,.14-1.13,.43-1.74,.29-.61,.71-1.18,1.26-1.69,.55-.51,1.23-.93,2.04-1.26,.81-.33,1.73-.49,2.76-.49,.82,0,1.61,.04,2.38,.12,.76,.08,1.5,.19,2.21,.33l-.58,2.82c-.33-.13-.7-.24-1.12-.35-.42-.11-.84-.21-1.28-.29-.43-.08-.86-.15-1.27-.19-.41-.05-.77-.07-1.09-.07-.36,0-.69,.01-.99,.05-.3,.04-.58,.13-.82,.28-.23,.14-.4,.37-.5,.71-.1,.34-.15,.74-.15,1.2s.12,.88,.37,1.19c.25,.32,.57,.59,.98,.84,.4,.24,.86,.46,1.38,.66,.52,.2,1.04,.41,1.59,.64,.54,.23,1.07,.49,1.59,.78,.51,.3,.97,.66,1.38,1.09,.4,.43,.73,.96,.98,1.57,.25,.62,.37,1.36,.37,2.24"/>
  <path class="cls-2" d="M285.4,20.89V229.95c0,5.58,8.66,5.58,8.66,0V20.89c0-5.58-8.66-5.58-8.66,0"/>
</svg>